# xmcd CD database file
#
# Track frame offsets:
#	150
#	14120
#	27200
#	44675
#	55887
#	72092
#	88047
#	110557
#	123592
#	137952
#	156102
#	171767
#	184992
#	198942
#	213015
#	227575
#
# Disc length: 3250 seconds
#
# Revision: 0
# Processed by: cddbd v1.5.2PL0 Copyright (c) Steve Scherf et al.
# Submitted via: CDex 1.70beta2
#
DISCID=e50cb010
DTITLE=Various Artist - Autumn Leaves
DYEAR=1988
DGENRE=Jazz
TTITLE0=Autumn Leaves
TTITLE1=Days of wine and roses
TTITLE2=Smoke gets in your eyes
TTITLE3=Stella by starlight
TTITLE4=Misty
TTITLE5=Tenderly
TTITLE6=Danny boy
TTITLE7=I left my heart in San Francisco
TTITLE8=As time goes by
TTITLE9=Fly me to the moon
TTITLE10=Autumn in New York
TTITLE11=September song
TTITLE12=The shadow of your smile
TTITLE13=When you wish upon a star
TTITLE14=Deep purple
TTITLE15=My funny Valentine
EXTD=YEAR: 1988
EXTT0=
EXTT1=
EXTT2=
EXTT3=
EXTT4=
EXTT5=
EXTT6=
EXTT7=
EXTT8=
EXTT9=
EXTT10=
EXTT11=
EXTT12=
EXTT13=
EXTT14=
EXTT15=
PLAYORDER=
